{
  "accessors": [
    {
      "bufferView": 2,
      "componentType": 5126,
      "count": 32400,
      "max": [
        0.9992645382881165,
        0.9992662072181702,
        1.0
      ],
      "min": [
        -0.9992613792419434,
        -0.9992629289627075,
        -1.0
      ],
      "type": "VEC3"
    },
    {
      "bufferView": 2,
      "byteOffset": 388800,
      "componentType": 5126,
      "count": 32400,
      "max": [
        0.9998767375946045,
        0.9998782277107239,
        0.9992673397064209
      ],
      "min": [
        -0.9998766779899597,
        -0.9998767375946045,
        -0.999267041683197
      ],
      "type": "VEC3"
    },
    {
      "bufferView": 1,
      "componentType": 5126,
      "count": 32400,
      "max": [
        1.0,
        1.0
      ],
      "min": [
        0.0,
        0.0
      ],
      "type": "VEC2"
    },
    {
      "bufferView": 0,
      "componentType": 5125,
      "count": 48000,
      "type": "SCALAR"
    },
    {
      "bufferView": 2,
      "byteOffset": 777600,
      "componentType": 5126,
      "count": 36180,
      "max": [
        1.5499999523162842,
        1.5499999523162842,
        0.2699160873889923
      ],
      "min": [
        -1.5499999523162842,
        -1.5499999523162842,
        -0.2699160873889923
      ],
      "type": "VEC3"
    },
    {
      "bufferView": 2,
      "byteOffset": 1211760,
      "componentType": 5126,
      "count": 36180,
      "max": [
        0.9987385272979736,
        0.9987386465072632,
        1.0
      ],
      "min": [
        -0.9987384676933289,
        -0.9987385869026184,
        -1.0
      ],
      "type": "VEC3"
    },
    {
      "bufferView": 1,
      "byteOffset": 259200,
      "componentType": 5126,
      "count": 36180,
      "max": [
        1.0,
        1.0
      ],
      "min": [
        -1.7763568394002505e-15,
        -1.7763568394002505e-15
      ],
      "type": "VEC2"
    },
    {
      "bufferView": 0,
      "byteOffset": 192000,
      "componentType": 5125,
      "count": 54432,
      "type": "SCALAR"
    }
  ],
  "asset": {
    "extras": {
      "author": "jaromir.ternavskiy (https://sketchfab.com/jaromir.ternavskiy)",
      "license": "CC-BY-4.0 (http://creativecommons.org/licenses/by/4.0/)",
      "source": "https://sketchfab.com/3d-models/weight-1e644effb81d4b368caf26972fb30347",
      "title": "Weight"
    },
    "generator": "Sketchfab-14.87.0",
    "version": "2.0"
  },
  "bufferViews": [
    {
      "buffer": 0,
      "byteLength": 409728,
      "name": "floatBufferViews",
      "target": 34963
    },
    {
      "buffer": 0,
      "byteLength": 548640,
      "byteOffset": 409728,
      "byteStride": 8,
      "name": "floatBufferViews",
      "target": 34962
    },
    {
      "buffer": 0,
      "byteLength": 1645920,
      "byteOffset": 958368,
      "byteStride": 12,
      "name": "floatBufferViews",
      "target": 34962
    }
  ],
  "buffers": [
    {
      "byteLength": 2604288,
      "uri": "scene.bin"
    }
  ],
  "images": [
    {
      "uri": "textures/Material.002_baseColor.jpeg"
    }
  ],
  "materials": [
    {
      "doubleSided": true,
      "name": "Material.002",
      "pbrMetallicRoughness": {
        "baseColorTexture": {
          "index": 0
        },
        "metallicFactor": 0.0,
        "roughnessFactor": 0.8822788522123169
      }
    },
    {
      "doubleSided": true,
      "name": "Material.001",
      "pbrMetallicRoughness": {
        "baseColorTexture": {
          "index": 0
        },
        "metallicFactor": 0.0,
        "roughnessFactor": 0.9645057573704989
      }
    }
  ],
  "meshes": [
    {
      "name": "Sphere_Material.002_0",
      "primitives": [
        {
          "attributes": {
            "NORMAL": 1,
            "POSITION": 0,
            "TEXCOORD_0": 2
          },
          "indices": 3,
          "material": 0,
          "mode": 4
        }
      ]
    },
    {
      "name": "Torus.001_Material.001_0",
      "primitives": [
        {
          "attributes": {
            "NORMAL": 5,
            "POSITION": 4,
            "TEXCOORD_0": 6
          },
          "indices": 7,
          "material": 1,
          "mode": 4
        }
      ]
    }
  ],
  "nodes": [
    {
      "children": [
        1
      ],
      "matrix": [
        1.0,
        0.0,
        0.0,
        0.0,
        0.0,
        2.220446049250313e-16,
        -1.0,
        0.0,
        0.0,
        1.0,
        2.220446049250313e-16,
        0.0,
        0.0,
        0.0,
        0.0,
        1.0
      ],
      "name": "Sketchfab_model"
    },
    {
      "children": [
        2
      ],
      "matrix": [
        0.009999999776482582,
        0.0,
        0.0,
        0.0,
        0.0,
        0.0,
        0.009999999776482582,
        0.0,
        0.0,
        -0.009999999776482582,
        0.0,
        0.0,
        0.0,
        0.0,
        0.0,
        1.0
      ],
      "name": "fc8f78ba8d4a44798de86219b469f1fe.fbx"
    },
    {
      "children": [
        3,
        5
      ],
      "name": "RootNode"
    },
    {
      "children": [
        4
      ],
      "matrix": [
        100.0,
        0.0,
        0.0,
        0.0,
        -0.0,
        -1.629206793918314e-05,
        -99.99999999999868,
        0.0,
        0.0,
        99.99999999999868,
        -1.629206793918314e-05,
        0.0,
        -60.232810974121094,
        87.0510482788086,
        -1.9475866556167603,
        1.0
      ],
      "name": "Sphere"
    },
    {
      "mesh": 0,
      "name": "Sphere_Material.002_0"
    },
    {
      "children": [
        6
      ],
      "matrix": [
        -1.9603607325710266e-06,
        -44.847824096679645,
        -4.97910869164727e-15,
        0.0,
        -2.499985569736538e-06,
        1.1429457539094152e-13,
        -57.19300079345698,
        0.0,
        61.29320907592762,
        -2.6792113735391544e-06,
        -2.6792113701366976e-06,
        0.0,
        -60.232810974121094,
        206.74838256835938,
        -1.9475866556167603,
        1.0
      ],
      "name": "Torus.001"
    },
    {
      "mesh": 1,
      "name": "Torus.001_Material.001_0"
    }
  ],
  "samplers": [
    {
      "magFilter": 9729,
      "minFilter": 9987,
      "wrapS": 10497,
      "wrapT": 10497
    }
  ],
  "scene": 0,
  "scenes": [
    {
      "name": "Sketchfab_Scene",
      "nodes": [
        0
      ]
    }
  ],
  "textures": [
    {
      "sampler": 0,
      "source": 0
    }
  ]
}
