{
  "accessors": [
    {
      "bufferView": 2,
      "componentType": 5126,
      "count": 15818,
      "max": [
        0.10663554817438126,
        0.04096825793385506,
        0.09319900721311569
      ],
      "min": [
        -0.10354387015104294,
        -0.01210664864629507,
        -0.11292807012796402
      ],
      "type": "VEC3"
    },
    {
      "bufferView": 2,
      "byteOffset": 189816,
      "componentType": 5126,
      "count": 15818,
      "max": [
        0.9999932646751404,
        0.9999995231628418,
        0.9989962577819824
      ],
      "min": [
        -0.9999880194664001,
        -0.7377626895904541,
        -0.9990597367286682
      ],
      "type": "VEC3"
    },
    {
      "bufferView": 1,
      "componentType": 5126,
      "count": 15818,
      "max": [
        0.9991762638092041,
        0.9988558292388916
      ],
      "min": [
        0.0008797271875664592,
        9.945767669705674e-05
      ],
      "type": "VEC2"
    },
    {
      "bufferView": 1,
      "byteOffset": 126544,
      "componentType": 5126,
      "count": 15818,
      "max": [
        0.9991762638092041,
        0.9988558292388916
      ],
      "min": [
        0.0008797271875664592,
        9.945767669705674e-05
      ],
      "type": "VEC2"
    },
    {
      "bufferView": 1,
      "byteOffset": 253088,
      "componentType": 5126,
      "count": 15818,
      "max": [
        0.9991762638092041,
        0.9988558292388916
      ],
      "min": [
        0.0008797271875664592,
        9.945767669705674e-05
      ],
      "type": "VEC2"
    },
    {
      "bufferView": 0,
      "componentType": 5125,
      "count": 82899,
      "type": "SCALAR"
    }
  ],
  "asset": {
    "extras": {
      "author": "Karl Hodge (https://sketchfab.com/karlhodge)",
      "license": "CC-BY-NC-SA-4.0 (http://creativecommons.org/licenses/by-nc-sa/4.0/)",
      "source": "https://sketchfab.com/3d-models/metal-weight-2d9bf66dd18b49bb92d415c0561e52e9",
      "title": "Metal Weight"
    },
    "generator": "Sketchfab-13.86.0",
    "version": "2.0"
  },
  "bufferViews": [
    {
      "buffer": 0,
      "byteLength": 331596,
      "name": "floatBufferViews",
      "target": 34963
    },
    {
      "buffer": 0,
      "byteLength": 379632,
      "byteOffset": 331596,
      "byteStride": 8,
      "name": "floatBufferViews",
      "target": 34962
    },
    {
      "buffer": 0,
      "byteLength": 379632,
      "byteOffset": 711228,
      "byteStride": 12,
      "name": "floatBufferViews",
      "target": 34962
    }
  ],
  "buffers": [
    {
      "byteLength": 1090860,
      "uri": "scene.bin"
    }
  ],
  "extensionsUsed": [
    "KHR_materials_unlit"
  ],
  "images": [
    {
      "uri": "textures/material_0_baseColor.jpeg"
    }
  ],
  "materials": [
    {
      "extensions": {
        "KHR_materials_unlit": {}
      },
      "name": "material_0",
      "pbrMetallicRoughness": {
        "baseColorTexture": {
          "index": 0
        },
        "metallicFactor": 0.0
      }
    }
  ],
  "meshes": [
    {
      "name": "Object_0",
      "primitives": [
        {
          "attributes": {
            "NORMAL": 1,
            "POSITION": 0,
            "TEXCOORD_0": 2,
            "TEXCOORD_1": 3,
            "TEXCOORD_2": 4
          },
          "indices": 5,
          "material": 0,
          "mode": 4
        }
      ]
    }
  ],
  "nodes": [
    {
      "children": [
        1
      ],
      "matrix": [
        1.0,
        0.0,
        0.0,
        0.0,
        0.0,
        2.220446049250313e-16,
        -1.0,
        0.0,
        0.0,
        1.0,
        2.220446049250313e-16,
        0.0,
        0.0,
        0.0,
        0.0,
        1.0
      ],
      "name": "Sketchfab_model"
    },
    {
      "children": [
        2
      ],
      "name": "root"
    },
    {
      "children": [
        3
      ],
      "matrix": [
        1.0,
        0.0,
        0.0,
        0.0,
        0.0,
        2.220446049250313e-16,
        1.0,
        0.0,
        0.0,
        -1.0,
        2.220446049250313e-16,
        0.0,
        0.0,
        0.0,
        0.0,
        1.0
      ],
      "name": "GLTF_SceneRootNode"
    },
    {
      "children": [
        4
      ],
      "name": "_0"
    },
    {
      "mesh": 0,
      "name": "Object_4"
    }
  ],
  "samplers": [
    {
      "magFilter": 9729,
      "minFilter": 9987,
      "wrapS": 10497,
      "wrapT": 10497
    }
  ],
  "scene": 0,
  "scenes": [
    {
      "name": "Sketchfab_Scene",
      "nodes": [
        0
      ]
    }
  ],
  "textures": [
    {
      "sampler": 0,
      "source": 0
    }
  ]
}
